<mxfile host="app.diagrams.net" modified="2024-03-12T22:58:08.381Z" agent="Mozilla/5.0 (Windows NT 10.0; Win64; x64) AppleWebKit/537.36 (KHTML, like Gecko) Chrome/122.0.0.0 Safari/537.36 Edg/122.0.0.0" etag="mBSMhh3Df3J0eh-tXE6X" version="24.0.4" type="device">
  <diagram name="Página-1" id="tAv99d9aMDdR-tTLEudo">
    <mxGraphModel dx="1461" dy="669" grid="1" gridSize="10" guides="1" tooltips="1" connect="1" arrows="1" fold="1" page="1" pageScale="1" pageWidth="827" pageHeight="1169" math="0" shadow="0">
      <root>
        <mxCell id="0" />
        <mxCell id="1" parent="0" />
        <mxCell id="gyXorX0WpMbC9rfKs0MG-3" value="" style="edgeStyle=orthogonalEdgeStyle;rounded=0;orthogonalLoop=1;jettySize=auto;html=1;" edge="1" parent="1" source="gyXorX0WpMbC9rfKs0MG-1" target="gyXorX0WpMbC9rfKs0MG-2">
          <mxGeometry relative="1" as="geometry" />
        </mxCell>
        <mxCell id="gyXorX0WpMbC9rfKs0MG-1" value="INICIO" style="ellipse;whiteSpace=wrap;html=1;fillColor=#5EA9FF;" vertex="1" parent="1">
          <mxGeometry x="20" y="40" width="120" height="80" as="geometry" />
        </mxCell>
        <mxCell id="gyXorX0WpMbC9rfKs0MG-5" value="" style="edgeStyle=orthogonalEdgeStyle;rounded=0;orthogonalLoop=1;jettySize=auto;html=1;" edge="1" parent="1" source="gyXorX0WpMbC9rfKs0MG-2">
          <mxGeometry relative="1" as="geometry">
            <mxPoint x="430" y="80" as="targetPoint" />
          </mxGeometry>
        </mxCell>
        <mxCell id="gyXorX0WpMbC9rfKs0MG-2" value="Mostrar menú" style="shape=parallelogram;perimeter=parallelogramPerimeter;whiteSpace=wrap;html=1;fixedSize=1;fillColor=#3CFF2E;" vertex="1" parent="1">
          <mxGeometry x="220" y="50" width="120" height="60" as="geometry" />
        </mxCell>
        <mxCell id="gyXorX0WpMbC9rfKs0MG-8" value="" style="edgeStyle=orthogonalEdgeStyle;rounded=0;orthogonalLoop=1;jettySize=auto;html=1;" edge="1" parent="1" source="gyXorX0WpMbC9rfKs0MG-6" target="gyXorX0WpMbC9rfKs0MG-7">
          <mxGeometry relative="1" as="geometry" />
        </mxCell>
        <mxCell id="gyXorX0WpMbC9rfKs0MG-6" value="¿Que operación desea realizar?" style="rhombus;whiteSpace=wrap;html=1;fillColor=#474D0A;" vertex="1" parent="1">
          <mxGeometry x="430" y="25" width="140" height="110" as="geometry" />
        </mxCell>
        <mxCell id="gyXorX0WpMbC9rfKs0MG-10" value="" style="edgeStyle=orthogonalEdgeStyle;rounded=0;orthogonalLoop=1;jettySize=auto;html=1;" edge="1" parent="1" source="gyXorX0WpMbC9rfKs0MG-7" target="gyXorX0WpMbC9rfKs0MG-9">
          <mxGeometry relative="1" as="geometry" />
        </mxCell>
        <mxCell id="gyXorX0WpMbC9rfKs0MG-12" value="" style="edgeStyle=orthogonalEdgeStyle;rounded=0;orthogonalLoop=1;jettySize=auto;html=1;" edge="1" parent="1" source="gyXorX0WpMbC9rfKs0MG-7" target="gyXorX0WpMbC9rfKs0MG-11">
          <mxGeometry relative="1" as="geometry" />
        </mxCell>
        <mxCell id="gyXorX0WpMbC9rfKs0MG-7" value="&quot;Mostrar opciones&quot;" style="shape=parallelogram;perimeter=parallelogramPerimeter;whiteSpace=wrap;html=1;fixedSize=1;fillColor=#3CFF2E;" vertex="1" parent="1">
          <mxGeometry x="440" y="240" width="120" height="60" as="geometry" />
        </mxCell>
        <mxCell id="gyXorX0WpMbC9rfKs0MG-14" value="" style="edgeStyle=orthogonalEdgeStyle;rounded=0;orthogonalLoop=1;jettySize=auto;html=1;" edge="1" parent="1" source="gyXorX0WpMbC9rfKs0MG-9" target="gyXorX0WpMbC9rfKs0MG-13">
          <mxGeometry relative="1" as="geometry" />
        </mxCell>
        <mxCell id="gyXorX0WpMbC9rfKs0MG-9" value="&quot;Factorial&quot;" style="shape=parallelogram;perimeter=parallelogramPerimeter;whiteSpace=wrap;html=1;fixedSize=1;fillColor=#3CFF2E;" vertex="1" parent="1">
          <mxGeometry x="240" y="240" width="120" height="60" as="geometry" />
        </mxCell>
        <mxCell id="gyXorX0WpMbC9rfKs0MG-17" value="" style="edgeStyle=orthogonalEdgeStyle;rounded=0;orthogonalLoop=1;jettySize=auto;html=1;" edge="1" parent="1" source="gyXorX0WpMbC9rfKs0MG-11" target="gyXorX0WpMbC9rfKs0MG-15">
          <mxGeometry relative="1" as="geometry" />
        </mxCell>
        <mxCell id="gyXorX0WpMbC9rfKs0MG-22" value="" style="edgeStyle=orthogonalEdgeStyle;rounded=0;orthogonalLoop=1;jettySize=auto;html=1;" edge="1" parent="1" source="gyXorX0WpMbC9rfKs0MG-11" target="gyXorX0WpMbC9rfKs0MG-21">
          <mxGeometry relative="1" as="geometry" />
        </mxCell>
        <mxCell id="gyXorX0WpMbC9rfKs0MG-11" value="&quot;Logaritmo&quot;" style="shape=parallelogram;perimeter=parallelogramPerimeter;whiteSpace=wrap;html=1;fixedSize=1;fillColor=#3CFF2E;" vertex="1" parent="1">
          <mxGeometry x="640" y="240" width="120" height="60" as="geometry" />
        </mxCell>
        <mxCell id="gyXorX0WpMbC9rfKs0MG-19" value="" style="edgeStyle=orthogonalEdgeStyle;rounded=0;orthogonalLoop=1;jettySize=auto;html=1;" edge="1" parent="1" source="gyXorX0WpMbC9rfKs0MG-13" target="gyXorX0WpMbC9rfKs0MG-18">
          <mxGeometry relative="1" as="geometry">
            <Array as="points">
              <mxPoint x="300" y="490" />
            </Array>
          </mxGeometry>
        </mxCell>
        <mxCell id="gyXorX0WpMbC9rfKs0MG-13" value="&lt;div&gt;Pedir números y&amp;nbsp;&lt;/div&gt;realizar operación&amp;nbsp;" style="shape=parallelogram;perimeter=parallelogramPerimeter;whiteSpace=wrap;html=1;fixedSize=1;fillColor=#3CFF2E;" vertex="1" parent="1">
          <mxGeometry x="210" y="380" width="180" height="60" as="geometry" />
        </mxCell>
        <mxCell id="gyXorX0WpMbC9rfKs0MG-20" value="" style="edgeStyle=orthogonalEdgeStyle;rounded=0;orthogonalLoop=1;jettySize=auto;html=1;" edge="1" parent="1" source="gyXorX0WpMbC9rfKs0MG-15" target="gyXorX0WpMbC9rfKs0MG-18">
          <mxGeometry relative="1" as="geometry">
            <Array as="points">
              <mxPoint x="700" y="490" />
            </Array>
          </mxGeometry>
        </mxCell>
        <mxCell id="gyXorX0WpMbC9rfKs0MG-15" value="&lt;div&gt;Pedir números y&lt;/div&gt;Realizar operacion&amp;nbsp;" style="shape=parallelogram;perimeter=parallelogramPerimeter;whiteSpace=wrap;html=1;fixedSize=1;fillColor=#3CFF2E;" vertex="1" parent="1">
          <mxGeometry x="615" y="380" width="170" height="60" as="geometry" />
        </mxCell>
        <mxCell id="gyXorX0WpMbC9rfKs0MG-26" value="" style="edgeStyle=orthogonalEdgeStyle;rounded=0;orthogonalLoop=1;jettySize=auto;html=1;" edge="1" parent="1" source="gyXorX0WpMbC9rfKs0MG-18" target="gyXorX0WpMbC9rfKs0MG-25">
          <mxGeometry relative="1" as="geometry" />
        </mxCell>
        <mxCell id="gyXorX0WpMbC9rfKs0MG-18" value="Mostrar resultado" style="shape=parallelogram;perimeter=parallelogramPerimeter;whiteSpace=wrap;html=1;fixedSize=1;fillColor=#FFCCE6;" vertex="1" parent="1">
          <mxGeometry x="440" y="460" width="120" height="60" as="geometry" />
        </mxCell>
        <mxCell id="gyXorX0WpMbC9rfKs0MG-24" value="" style="edgeStyle=orthogonalEdgeStyle;rounded=0;orthogonalLoop=1;jettySize=auto;html=1;" edge="1" parent="1" source="gyXorX0WpMbC9rfKs0MG-21" target="gyXorX0WpMbC9rfKs0MG-23">
          <mxGeometry relative="1" as="geometry" />
        </mxCell>
        <mxCell id="gyXorX0WpMbC9rfKs0MG-21" value="Salir" style="shape=parallelogram;perimeter=parallelogramPerimeter;whiteSpace=wrap;html=1;fixedSize=1;fillColor=#3CFF2E;" vertex="1" parent="1">
          <mxGeometry x="840" y="240" width="120" height="60" as="geometry" />
        </mxCell>
        <mxCell id="gyXorX0WpMbC9rfKs0MG-27" style="edgeStyle=orthogonalEdgeStyle;rounded=0;orthogonalLoop=1;jettySize=auto;html=1;entryX=1;entryY=0.5;entryDx=0;entryDy=0;" edge="1" parent="1" source="gyXorX0WpMbC9rfKs0MG-23" target="gyXorX0WpMbC9rfKs0MG-25">
          <mxGeometry relative="1" as="geometry" />
        </mxCell>
        <mxCell id="gyXorX0WpMbC9rfKs0MG-23" value="Mostrar en pantalla: Saliendo" style="shape=parallelogram;perimeter=parallelogramPerimeter;whiteSpace=wrap;html=1;fixedSize=1;fillColor=#3CFF2E;" vertex="1" parent="1">
          <mxGeometry x="825" y="600" width="150" height="60" as="geometry" />
        </mxCell>
        <mxCell id="gyXorX0WpMbC9rfKs0MG-25" value="FIN" style="ellipse;whiteSpace=wrap;html=1;fillColor=#5EA9FF;" vertex="1" parent="1">
          <mxGeometry x="435" y="590" width="130" height="80" as="geometry" />
        </mxCell>
      </root>
    </mxGraphModel>
  </diagram>
</mxfile>
